<svg xmlns="http://www.w3.org/2000/svg" viewBox="0 0 24 24" fill="currentColor">
  <path d="M13.2705 1.25C13.8283 1.25 14.3133 1.23764 14.7422 1.40625C15.0926 1.54407 15.4029 1.76782 15.6445 2.05664C15.9402 2.41023 16.0823 2.87497 16.2588 3.4043L16.541 4.25H22C22.4141 4.25 22.7499 4.58588 22.75 5C22.75 5.41421 22.4142 5.75 22 5.75H20.707L20.1035 16.0195C20.0419 17.0676 19.9932 17.8984 19.9004 18.5654C19.8063 19.2414 19.6591 19.8118 19.3682 20.3291C18.8951 21.1699 18.1768 21.8467 17.3096 22.2695C16.7761 22.5295 16.1988 22.6431 15.5186 22.6973C14.8472 22.7507 14.0157 22.75 12.9658 22.75H11.0342C9.98434 22.75 9.15277 22.7507 8.48145 22.6973C7.80118 22.6431 7.22386 22.5295 6.69043 22.2695C5.82322 21.8467 5.1049 21.1699 4.63184 20.3291C4.34092 19.8118 4.19368 19.2414 4.09961 18.5654C4.00681 17.8984 3.95814 17.0676 3.89648 16.0195L3.29297 5.75H2C1.58579 5.75 1.25 5.41421 1.25 5C1.25012 4.58588 1.58586 4.25 2 4.25H7.45898L7.74121 3.4043C7.91765 2.87497 8.05977 2.41023 8.35547 2.05664C8.59708 1.76782 8.90738 1.54407 9.25781 1.40625C9.68669 1.23764 10.1717 1.25 10.7295 1.25H13.2705ZM10 9.25C9.58579 9.25 9.25 9.58579 9.25 10V17C9.25 17.4142 9.58579 17.75 10 17.75C10.4142 17.75 10.75 17.4142 10.75 17V10C10.75 9.58579 10.4142 9.25 10 9.25ZM14 9.25C13.5858 9.25 13.25 9.58579 13.25 10V14C13.25 14.4142 13.5858 14.75 14 14.75C14.4142 14.75 14.75 14.4142 14.75 14V10C14.75 9.58579 14.4142 9.25 14 9.25ZM10.7295 2.75C10.0441 2.75 9.90688 2.76238 9.80664 2.80176C9.68993 2.84766 9.58636 2.9224 9.50586 3.01855C9.43675 3.1012 9.38091 3.22739 9.16406 3.87793L9.04004 4.25H14.96L14.8359 3.87793C14.6191 3.22739 14.5632 3.1012 14.4941 3.01855C14.4136 2.9224 14.3101 2.84766 14.1934 2.80176C14.0931 2.76238 13.9559 2.75 13.2705 2.75H10.7295Z"/>
</svg>
